<svg width="32" height="32" viewBox="0 0 32 32" fill="none" xmlns="http://www.w3.org/2000/svg">
  <!-- Fondo con gradiente -->
  <rect width="32" height="32" rx="6" fill="url(#gradient)"/>
  
  <!-- Ãcono de edificio/sede -->
  <path d="M8 24V12C8 11.4477 8.44772 11 9 11H15C15.5523 11 16 11.4477 16 12V24" stroke="white" stroke-width="1.5" fill="none"/>
  <path d="M16 24V16C16 15.4477 16.4477 15 17 15H23C23.5523 15 24 15.4477 24 16V24" stroke="white" stroke-width="1.5" fill="none"/>
  
  <!-- Ventanas -->
  <rect x="10" y="13" width="2" height="2" fill="white" opacity="0.8"/>
  <rect x="12.5" y="13" width="2" height="2" fill="white" opacity="0.8"/>
  <rect x="10" y="16" width="2" height="2" fill="white" opacity="0.8"/>
  <rect x="12.5" y="16" width="2" height="2" fill="white" opacity="0.8"/>
  <rect x="18" y="17" width="2" height="2" fill="white" opacity="0.8"/>
  <rect x="20.5" y="17" width="2" height="2" fill="white" opacity="0.8"/>
  <rect x="18" y="20" width="2" height="2" fill="white" opacity="0.8"/>
  <rect x="20.5" y="20" width="2" height="2" fill="white" opacity="0.8"/>
  
  <!-- Base -->
  <line x1="6" y1="24" x2="26" y2="24" stroke="white" stroke-width="1.5" stroke-linecap="round"/>
  
  <!-- Gradiente -->
  <defs>
    <linearGradient id="gradient" x1="0%" y1="0%" x2="100%" y2="100%">
      <stop offset="0%" style="stop-color:#3B82F6;stop-opacity:1" />
      <stop offset="100%" style="stop-color:#1E40AF;stop-opacity:1" />
    </linearGradient>
  </defs>
</svg>
